<svg width="32" height="32" viewBox="0 0 32 32" fill="none" xmlns="http://www.w3.org/2000/svg">
<path d="M19.7025 3.26794C20.8333 3.8772 21.6854 4.89931 22.0812 6.12127L22.7679 8.6666H14.9999L14.7359 8.67327H14.7172C13.4419 8.74548 12.2425 9.30307 11.3653 10.2316C10.4881 11.1602 9.99952 12.3892 9.99986 13.6666V23.6666L10.0065 23.9306V23.9493C10.0265 24.2826 10.0772 24.6039 10.1572 24.9159C9.36155 24.9002 8.58119 24.6945 7.8812 24.3159C6.74991 23.7069 5.89733 22.6848 5.5012 21.4626L2.83986 11.5506C2.50633 10.3176 2.65907 9.00357 3.26653 7.87994C3.87553 6.74865 4.89767 5.89607 6.11986 5.49994L16.0319 2.83727C17.2648 2.50491 18.5783 2.65859 19.7012 3.2666L19.7025 3.26794Z" fill="#FFEAD7"/>
<path d="M15.0095 10L14.7828 10.0067C13.8497 10.0621 12.9729 10.4718 12.3318 11.1521C11.6906 11.8324 11.3336 12.7319 11.3335 13.6667V23.6573L11.3402 23.884C11.3956 24.8172 11.8053 25.6939 12.4856 26.3351C13.1659 26.9762 14.0654 27.3333 15.0002 27.3333H15.6428C14.7282 25.5777 14.4422 23.5619 14.8323 21.6211C15.2225 19.6804 16.2652 17.9317 17.7872 16.6659C19.3092 15.4 21.2186 14.6934 23.198 14.6635C25.1773 14.6335 27.1073 15.2821 28.6668 16.5013V13.676L28.6602 13.4493C28.6048 12.5162 28.195 11.6394 27.5147 10.9983C26.8344 10.3571 25.935 10.0001 25.0002 10H15.0095Z" fill="#FFEAD7"/>
<path d="M30.6667 23.3333C30.6667 21.3884 29.8941 19.5231 28.5188 18.1479C27.1435 16.7726 25.2783 16 23.3333 16C21.3884 16 19.5231 16.7726 18.1479 18.1479C16.7726 19.5231 16 21.3884 16 23.3333C16 25.2783 16.7726 27.1435 18.1479 28.5188C19.5231 29.8941 21.3884 30.6667 23.3333 30.6667C25.2783 30.6667 27.1435 29.8941 28.5188 28.5188C29.8941 27.1435 30.6667 25.2783 30.6667 23.3333ZM23.2133 18.676L23.3333 18.6667L23.4533 18.6773C23.5865 18.7017 23.7092 18.766 23.8049 18.8617C23.9007 18.9575 23.965 19.0801 23.9893 19.2133L24 19.3333V22.6667L27.34 22.668L27.46 22.6787C27.5932 22.703 27.7158 22.7673 27.8116 22.8631C27.9073 22.9588 27.9717 23.0815 27.996 23.2147L28.0067 23.3347L27.996 23.4547C27.9716 23.5881 27.9071 23.7108 27.8111 23.8066C27.715 23.9024 27.5921 23.9666 27.4587 23.9907L27.3387 24.0013H24.0013V27.3387L23.9907 27.4587C23.9663 27.5919 23.902 27.7145 23.8063 27.8103C23.7105 27.906 23.5879 27.9703 23.4547 27.9947L23.3347 28.0053L23.2147 27.9947C23.0815 27.9703 22.9588 27.906 22.8631 27.8103C22.7673 27.7145 22.703 27.5919 22.6787 27.4587L22.668 27.3387V24H19.3307L19.2107 23.9893C19.0775 23.965 18.9548 23.9007 18.8591 23.8049C18.7633 23.7092 18.699 23.5865 18.6747 23.4533L18.664 23.3333L18.6747 23.2133C18.699 23.0801 18.7633 22.9575 18.8591 22.8617C18.9548 22.766 19.0775 22.7017 19.2107 22.6773L19.3307 22.6667H22.6667V19.3333L22.6773 19.2133C22.7014 19.0799 22.7656 18.957 22.8614 18.8609C22.9572 18.7649 23.0799 18.7004 23.2133 18.676Z" fill="#FFEAD7"/>
</svg>
