<svg width="200" height="190" viewBox="0 0 200 190" fill="none" xmlns="http://www.w3.org/2000/svg">
<g clip-path="url(#clip0_468_14)">
<path d="M131.641 0.37016C120.484 3.02276 111.703 12.3068 107.453 25.9091C105.453 32.3093 104.578 40.2517 105.234 46.0349C106.516 57.4627 111.984 66.4229 120.094 70.4481C122.844 71.8052 125.594 72.5146 128.219 72.5146C130.313 72.5146 132.156 72.1445 134.266 71.3117C146.984 66.2687 155.781 53.3913 157.688 37.013C158.016 34.1291 157.938 28.5155 157.516 25.138C156.891 20.1104 156.156 17.427 154.453 13.957C151.781 8.51302 148.031 4.48785 143.438 2.17454C140.656 0.755712 138.359 0.169673 135.234 0.0617179C133.469 0.0154517 133 0.0462959 131.641 0.37016Z" fill="#4E7548"/>
<path d="M59.7186 1.0023C53.3436 2.14354 47.5311 6.92438 43.9998 13.9414C40.6873 20.5112 39.7811 29.7491 41.4998 39.4495C43.6873 51.8181 50.0779 62.2434 59.1717 68.258C61.1717 69.5843 64.4842 71.2036 66.7342 71.9439C68.3279 72.4682 68.7342 72.5299 70.4998 72.607C72.8436 72.6996 74.5154 72.4836 76.5623 71.8359C79.7342 70.8335 82.3279 69.2604 84.7654 66.8546C89.5936 62.0892 92.5936 54.9179 93.2967 46.4512C93.5779 42.9658 93.2654 37.784 92.4998 33.728C89.7654 19.0461 81.7186 7.51042 70.9373 2.83753C66.7342 1.01773 63.0311 0.416264 59.7186 1.0023Z" fill="#4E7548"/>
<path d="M178.172 57.2775C167.844 58.9585 158.734 66.0064 153.109 76.7093C150.438 81.7832 149.031 86.163 148.016 92.5323C147.656 94.8302 147.594 95.6939 147.594 98.3156C147.594 101.523 147.781 103.112 148.453 105.703C150.25 112.658 154.484 118.318 159.75 120.832C162.625 122.204 165.25 122.713 168.203 122.451C175.375 121.834 181.766 118.642 187.453 112.843C193.719 106.443 198.031 97.5908 199.438 88.2913C199.797 85.9625 200.047 81.413 199.938 79.5469C199.359 69.939 194.141 61.5185 186.875 58.4341C184.063 57.2466 180.969 56.8302 178.172 57.2775Z" fill="#4E7548"/>
<path d="M16.4218 61.3182C9.62494 62.444 3.90619 67.1323 1.79681 73.332C1.04681 75.5219 0.42181 78.6526 0.156185 81.5057C-0.812565 91.8539 2.85931 103.467 9.81244 112.119C11.3437 114.015 14.3593 117.007 16.2812 118.488C20.7187 121.958 26.0781 124.441 31.0781 125.382C32.4062 125.628 35.5468 125.597 36.8124 125.32C42.4218 124.117 47.1562 120.261 49.8437 114.694C51.4999 111.27 52.3437 106.906 52.3437 101.77C52.3437 98.6088 52.1874 96.8815 51.6249 93.9513C49.4843 82.6623 42.5312 72.0982 33.1562 65.8831C30.5937 64.1713 26.9531 62.3515 24.9687 61.7809C22.4843 61.0714 19.0312 60.8864 16.4218 61.3182Z" fill="#4E7548"/>
<path d="M97.4999 98.9327C92.0624 99.5342 86.6874 100.968 81.3906 103.266C73.2968 106.798 65.4843 112.674 60.4374 119.059C49.5468 132.846 41.9843 147.774 38.9062 161.546C38.7187 162.395 38.3905 163.675 38.1874 164.399C37.1405 168.147 37.3124 172.404 38.6718 176.12C40.8593 182.104 45.5937 186.746 51.4531 188.689C54.9531 189.846 60.1874 189.83 66.0156 188.628C69.8124 187.856 72.6562 186.962 80.7187 184.016C91.9374 179.899 95.0468 179.112 102.594 178.418C105.969 178.11 106.578 178.094 108.906 178.264C114.859 178.68 119.562 179.96 128.594 183.6C136.594 186.823 141.062 188.566 142.187 188.874C153.437 192.02 164.609 188.149 168.437 179.775C170.109 176.089 170.297 170.09 168.891 164.399C167.516 158.863 163.437 149.872 159.531 143.811C148.531 126.723 140.609 117.146 131.562 109.929C122.984 103.112 115.859 99.9043 107.016 98.9327C104.531 98.6551 100.031 98.6551 97.4999 98.9327Z" fill="#4E7548"/>
</g>
<defs>
<clipPath id="clip0_468_14">
<rect width="200" height="190" fill="white"/>
</clipPath>
</defs>
</svg>
