<svg width="30" height="30" viewBox="0 0 30 30" fill="none" xmlns="http://www.w3.org/2000/svg">
<path d="M5.625 28.125H24.375V23.4375C24.373 21.6976 23.681 20.0296 22.4507 18.7993C21.2204 17.569 19.5524 16.877 17.8125 16.875H12.1875C10.4476 16.877 8.77958 17.569 7.5493 18.7993C6.31903 20.0296 5.62699 21.6976 5.625 23.4375V28.125Z" fill="#FFEAD7"/>
<path d="M8.4375 8.4375C8.4375 9.73544 8.82238 11.0042 9.54348 12.0834C10.2646 13.1626 11.2895 14.0038 12.4886 14.5005C13.6878 14.9972 15.0073 15.1271 16.2803 14.8739C17.5533 14.6207 18.7226 13.9957 19.6404 13.0779C20.5582 12.1601 21.1832 10.9908 21.4364 9.71778C21.6896 8.44478 21.5597 7.12528 21.063 5.92614C20.5663 4.727 19.7251 3.70208 18.6459 2.98098C17.5667 2.25988 16.2979 1.875 15 1.875C13.2595 1.875 11.5903 2.5664 10.3596 3.79711C9.1289 5.02782 8.4375 6.69702 8.4375 8.4375Z" fill="#FFEAD7"/>
</svg>
