<svg width="30" height="30" viewBox="0 0 30 30" fill="none" xmlns="http://www.w3.org/2000/svg">
<path d="M19.7917 0.389726C18.0922 0.790588 16.763 2.19946 16.1207 4.28347C15.8206 5.25632 15.6893 6.4636 15.7878 7.34268C15.98 9.07975 16.8005 10.4417 18.0171 11.0536C18.7064 11.4005 19.3885 11.4591 20.0308 11.2317C20.4809 11.0723 21.0881 10.716 21.4843 10.3784C22.5368 9.4853 23.287 8.10924 23.5683 6.55737C23.6644 6.02523 23.6878 5.75564 23.6855 5.16256C23.6855 4.02795 23.5261 3.20044 23.1721 2.4667C22.6329 1.35086 21.7796 0.61946 20.7646 0.401447C20.4856 0.342842 20.0215 0.338153 19.7917 0.389726Z" fill="#FFEAD7"/>
<path d="M8.95441 0.497451C8.01437 0.661547 7.12826 1.40232 6.60081 2.46425C6.31247 3.04327 6.17651 3.59885 6.11556 4.44981C6.08743 4.82254 6.10149 5.42031 6.14369 5.79539C6.38514 7.92394 7.37909 9.71727 8.87705 10.7206C9.17711 10.9222 9.67408 11.1683 10.0116 11.2809C10.2508 11.3606 10.3117 11.3699 10.5766 11.3817C10.9282 11.3957 11.1791 11.3629 11.4862 11.2645C11.962 11.1121 12.3512 10.873 12.7169 10.5073C13.4412 9.7829 13.8913 8.6905 13.9968 7.40587C14.039 6.87607 13.9921 6.08841 13.8773 5.47188C13.4178 2.9706 11.9808 1.11867 10.0773 0.570122C9.69752 0.462288 9.30838 0.436502 8.95441 0.497451Z" fill="#FFEAD7"/>
<path d="M26.7306 9.0515C25.1623 9.30936 23.798 10.39 22.947 12.0521C22.5556 12.8187 22.3586 13.4422 22.2063 14.4127C22.1524 14.7597 22.143 14.8909 22.143 15.2895C22.143 15.7771 22.1711 16.0185 22.2719 16.4123C22.5415 17.4696 23.1768 18.3299 23.9668 18.712C24.3981 18.9207 24.7919 18.998 25.235 18.9582C26.311 18.8644 27.2698 18.3791 28.1231 17.4977C29.0631 16.5249 29.7101 15.1793 29.9211 13.7657C29.975 13.4141 30.0125 12.7202 29.9961 12.4365C29.9094 10.9784 29.1264 9.69616 28.0363 9.22731C27.6144 9.04681 27.1502 8.98351 26.7306 9.0515Z" fill="#FFEAD7"/>
<path d="M2.46326 9.66584C1.44352 9.83696 0.585535 10.5496 0.269065 11.492C0.156543 11.8249 0.0627742 12.3007 0.0229224 12.7344C-0.122419 14.3074 0.430817 16.0843 1.47165 17.3877C2.24993 18.3605 3.25326 19.0333 4.37614 19.3357C5.32086 19.5889 6.16947 19.3498 6.88914 18.6301C7.53146 17.9878 7.85262 17.0501 7.85262 15.8147C7.85262 15.3342 7.82917 15.0716 7.74478 14.6262C7.45879 13.0978 6.59143 11.635 5.40291 10.6762C4.8567 10.2355 4.12062 9.82993 3.65646 9.71506C3.29076 9.62364 2.82895 9.60489 2.46326 9.66584Z" fill="#FFEAD7"/>
<path d="M14.6274 15.3833C13.8116 15.4748 13.0052 15.6928 12.2105 16.0421C10.9962 16.5789 9.82411 17.472 9.06692 18.4425C7.433 20.5383 6.2984 22.8075 5.83659 24.9009C5.80846 25.0298 5.75923 25.2244 5.72876 25.3345C5.57169 25.9042 5.59748 26.5512 5.80143 27.1162C6.12962 28.0257 6.83992 28.7313 7.719 29.0267C8.2441 29.2025 9.02942 29.2002 9.90381 29.0173C10.4735 28.9001 10.9001 28.7641 12.1097 28.3164C13.7929 27.6905 14.2594 27.5709 15.3916 27.4654C15.898 27.4186 15.9894 27.4162 16.3387 27.442C17.2318 27.5053 17.9375 27.6999 19.2924 28.2531C20.4927 28.743 21.1631 29.0079 21.3319 29.0548C23.0197 29.533 24.6958 28.9446 25.2702 27.6717C25.521 27.1115 25.5491 26.1996 25.3382 25.3345C25.1319 24.493 24.52 23.1263 23.934 22.205C22.2813 19.6029 21.1021 18.1565 19.7378 17.0548C18.4555 16.021 17.3795 15.531 16.055 15.3833C15.6823 15.3411 15.0072 15.3411 14.6274 15.3833Z" fill="#FFEAD7"/>
</svg>
